<svg t="1630566351250" class="icon" viewBox="0 0 1024 1024" version="1.1" xmlns="http://www.w3.org/2000/svg" p-id="1958"
     width="40" height="40">
    <path d="M379.4944 624.4864L73.0112 507.8016c-12.3904-4.7104-13.1072-21.9136-1.0752-27.5968l865.792-414.4128c12.0832-5.7856 25.088 5.7856 20.6848 18.3808l-289.3824 833.8944c-3.7888 10.9056-18.0224 13.7216-25.6 5.0176l-257.9968-294.5024c-1.6384-1.792-3.6352-3.2768-5.9392-4.096z"
          fill="#72C6FE" p-id="1959"></path>
    <path d="M316.0064 600.32l493.2096-401.408c3.584-3.0208 8.2944 2.2016 5.0176 5.4784l-422.4 417.9968c-3.4816 3.4816-3.6864 9.1136-0.512 12.9024l83.5072 95.3856-135.1168 92.0064c-10.0864 6.912-23.7056-0.3072-23.7056-12.4928v-209.8688z"
          fill="#3682A1" p-id="1960"></path>
</svg>